<svg width="21" height="20" viewBox="0 0 21 20" fill="none" xmlns="http://www.w3.org/2000/svg">
<path d="M10.9961 3.44539e-08C9.01829 3.44539e-08 7.08489 0.58649 5.4404 1.6853C3.7959 2.78412 2.51418 4.3459 1.7573 6.17317C1.00043 8.00043 0.802393 10.0111 1.18825 11.9509C1.5741 13.8907 2.52651 15.6725 3.92503 17.0711C5.32356 18.4696 7.10539 19.422 9.0452 19.8079C10.985 20.1937 12.9957 19.9957 14.8229 19.2388C16.6502 18.4819 18.212 17.2002 19.3108 15.5557C20.4096 13.9112 20.9961 11.9778 20.9961 10C20.9962 8.68675 20.7376 7.38634 20.2351 6.17304C19.7326 4.95973 18.996 3.8573 18.0674 2.92869C17.1388 2.00008 16.0364 1.26349 14.8231 0.760983C13.6098 0.258474 12.3093 -0.000108979 10.9961 3.44539e-08ZM14.1756 15.1525C14.1382 15.2458 14.0812 15.33 14.0086 15.3996C13.9359 15.4691 13.8492 15.5223 13.7544 15.5556C13.6595 15.5889 13.5586 15.6015 13.4584 15.5926C13.3582 15.5837 13.2611 15.5535 13.1736 15.504L10.4589 13.3946L8.71662 15.002C8.67619 15.0319 8.6289 15.0511 8.5791 15.0579C8.52929 15.0647 8.47858 15.0589 8.43162 15.0409L8.76562 12.0525L8.77631 12.061L8.78314 12.002C8.78314 12.002 13.6681 7.55445 13.8671 7.36496C14.0686 7.17596 14.0021 7.13496 14.0021 7.13496C14.0136 6.90443 13.6406 7.13496 13.6406 7.13496L7.1681 11.299L4.47261 10.381C4.47261 10.381 4.05861 10.2325 4.01961 9.906C3.97861 9.582 4.4861 9.406 4.4861 9.406L15.2031 5.14849C15.2031 5.14849 16.0841 4.75597 16.0841 5.406L14.1756 15.1525Z" fill="white"/>
</svg>
