<svg width="10" height="10" viewBox="0 0 10 10" fill="none" xmlns="http://www.w3.org/2000/svg">
<path d="M8.43947 3.35941L8.48921 3.36009C8.67374 3.37534 8.8152 3.52858 8.82499 3.71303L8.82024 3.81587L8.663 5.74149L8.49804 7.62068C8.46314 7.99583 8.4319 8.31225 8.40494 8.56133C8.31123 9.42938 7.74774 9.96617 6.8983 9.98206C5.57469 10.0065 4.30238 10.0063 3.06686 9.97954C2.24199 9.96222 1.68683 9.41963 1.59477 8.56485L1.53115 7.93508L1.41997 6.71351L1.30608 5.37303L1.17586 3.76394C1.15967 3.55749 1.30976 3.37668 1.51107 3.36008C1.69562 3.34487 1.85915 3.47292 1.89759 3.65339L1.91255 3.80087L2.03483 5.30936L2.16834 6.87294C2.22823 7.54981 2.28017 8.09759 2.32173 8.4824C2.37419 8.96951 2.63069 9.2202 3.08206 9.22967C4.30793 9.25618 5.57074 9.25643 6.88505 9.23215C7.36385 9.2232 7.62442 8.97497 7.678 8.47868L7.74135 7.85229C7.75989 7.65925 7.77971 7.44614 7.80067 7.21464L7.93432 5.6769L8.0953 3.70375C8.11018 3.51451 8.25961 3.36945 8.43947 3.35941ZM0.865695 2.49459C0.663727 2.49459 0.5 2.32669 0.5 2.11958C0.5 1.92972 0.637576 1.77282 0.816072 1.74799L0.865695 1.74456H2.45886C2.64818 1.74456 2.81392 1.61964 2.87321 1.43965L2.88772 1.38407L3.01152 0.752663C3.12056 0.334483 3.4746 0.0367466 3.8895 0.00316574L3.96796 0H6.03194C6.45373 0 6.82617 0.273138 6.96955 0.695193L6.9937 0.776043L7.11216 1.38392C7.14935 1.57436 7.30126 1.7166 7.48504 1.74089L7.54104 1.74456H9.13431C9.33627 1.74456 9.5 1.91246 9.5 2.11958C9.5 2.30943 9.36242 2.46634 9.18393 2.49117L9.13431 2.49459H0.865695ZM6.03194 0.750028H3.96796C3.86535 0.750028 3.77415 0.811612 3.73626 0.889013L3.72341 0.923019L3.6049 1.53119C3.5904 1.60542 3.56939 1.6769 3.54256 1.74506L6.4574 1.74515C6.44065 1.70263 6.42617 1.65881 6.41412 1.61384L6.39498 1.53104L6.28181 0.946399C6.25536 0.844957 6.17367 0.770692 6.07511 0.75371L6.03194 0.750028Z" fill="#FF7B00"/>
</svg>
